<svg width="132" height="36" viewBox="0 0 132 36" fill="none" xmlns="http://www.w3.org/2000/svg">
<path d="M61.2237 11.9091H63.9915V20.4105C63.9915 21.3651 63.7635 22.2003 63.3075 22.9162C62.8558 23.6321 62.223 24.1903 61.4091 24.5909C60.5952 24.9872 59.647 25.1854 58.5646 25.1854C57.478 25.1854 56.5277 24.9872 55.7138 24.5909C54.8999 24.1903 54.267 23.6321 53.8153 22.9162C53.3636 22.2003 53.1378 21.3651 53.1378 20.4105V11.9091H55.9055V20.174C55.9055 20.6726 56.0142 21.1158 56.2315 21.5036C56.4531 21.8913 56.7642 22.196 57.1648 22.4176C57.5653 22.6392 58.032 22.75 58.5646 22.75C59.1016 22.75 59.5682 22.6392 59.9645 22.4176C60.3651 22.196 60.674 21.8913 60.8913 21.5036C61.1129 21.1158 61.2237 20.6726 61.2237 20.174V11.9091ZM72.3347 17.3743V19.5348H66.3645V17.3743H72.3347ZM74.7061 25V11.9091H77.4739V17.6811H77.6465L82.3574 11.9091H85.6749L80.8169 17.7706L85.7324 25H82.4213L78.8354 19.6179L77.4739 21.2798V25H74.7061ZM98.0659 11.9091V25H95.6752L89.9799 16.7607H89.8841V25H87.1163V11.9091H89.5453L95.1958 20.142H95.3109V11.9091H98.0659ZM112.382 18.4545C112.382 19.8821 112.112 21.0966 111.571 22.098C111.034 23.0994 110.301 23.8643 109.372 24.3928C108.447 24.9169 107.407 25.179 106.252 25.179C105.089 25.179 104.045 24.9148 103.12 24.3864C102.196 23.858 101.465 23.093 100.928 22.0916C100.391 21.0902 100.123 19.8778 100.123 18.4545C100.123 17.027 100.391 15.8125 100.928 14.8111C101.465 13.8097 102.196 13.0469 103.12 12.5227C104.045 11.9943 105.089 11.7301 106.252 11.7301C107.407 11.7301 108.447 11.9943 109.372 12.5227C110.301 13.0469 111.034 13.8097 111.571 14.8111C112.112 15.8125 112.382 17.027 112.382 18.4545ZM109.576 18.4545C109.576 17.5298 109.438 16.75 109.161 16.1151C108.888 15.4801 108.502 14.9986 108.004 14.6705C107.505 14.3423 106.922 14.1783 106.252 14.1783C105.583 14.1783 105 14.3423 104.501 14.6705C104.002 14.9986 103.615 15.4801 103.338 16.1151C103.065 16.75 102.929 17.5298 102.929 18.4545C102.929 19.3793 103.065 20.1591 103.338 20.794C103.615 21.429 104.002 21.9105 104.501 22.2386C105 22.5668 105.583 22.7308 106.252 22.7308C106.922 22.7308 107.505 22.5668 108.004 22.2386C108.502 21.9105 108.888 21.429 109.161 20.794C109.438 20.1591 109.576 19.3793 109.576 18.4545ZM116.887 25L113.142 11.9091H116.165L118.332 21.005H118.441L120.831 11.9091H123.42L125.804 21.0241H125.919L128.086 11.9091H131.11L127.364 25H124.666L122.173 16.4411H122.071L119.585 25H116.887Z" fill="#BE9D5D"/>
<path d="M8 20.36V28.36L22 36L36 28.36V20.36L22 28L8 20.36ZM22 0L0 12L22 24L40 14.18V28H44V12L22 0Z" fill="#BE9D5D"/>
</svg>
